<svg xmlns="http://www.w3.org/2000/svg" viewBox="0 0 512 512"><circle cx="256" cy="256" r="256" fill="#32bea6"/><path d="M197.432 303.008c-4.624 2.312-13.872 4.624-25.736 4.624-27.456 0-48.128-17.344-48.128-49.288 0-30.496 20.672-51.16 50.872-51.16 12.144 0 19.8 2.592 23.128 4.328l-3.032 10.264c-4.776-2.312-11.56-4.048-19.656-4.048-22.84 0-38.016 14.592-38.016 40.176 0 23.848 13.736 39.168 37.44 39.168 7.656 0 15.464-1.584 20.512-4.048l2.616 9.984zM213.2 210.08a179.606 179.606 0 0 1 26.744-2.032c18.064 0 30.92 4.192 39.456 12.144 8.672 7.952 13.736 19.224 13.736 34.984 0 15.888-4.92 28.904-14.024 37.856-9.104 9.112-24.136 14.024-43.072 14.024-8.96 0-16.48-.432-22.832-1.16V210.08h-.008zm12.576 86.136c3.184.576 7.816.72 12.72.72 26.888 0 41.488-15.032 41.488-41.336.144-22.976-12.856-37.576-39.456-37.576-6.504 0-11.424.576-14.752 1.304v76.888zm83.712 9.968v-97.416h13.728l31.216 49.288c7.232 11.416 12.864 21.672 17.496 31.648l.288-.152c-1.16-13-1.448-24.856-1.448-40.032v-40.76h11.848v97.416h-12.72l-30.928-49.432c-6.792-10.832-13.296-21.968-18.208-32.52l-.44.152c.728 12.288 1.016 23.992 1.016 40.176v41.624h-11.848v.008z" fill="#fff"/></svg>