<?xml version="1.0" encoding="iso-8859-1"?>
<!-- Generator: Adobe Illustrator 19.0.0, SVG Export Plug-In . SVG Version: 6.00 Build 0)  -->
<svg version="1.1" id="Layer_1" xmlns="http://www.w3.org/2000/svg" xmlns:xlink="http://www.w3.org/1999/xlink" x="0px" y="0px"
	 viewBox="0 0 512 512" style="enable-background:new 0 0 512 512;" xml:space="preserve">
<circle style="fill:#32BEA6;" cx="256" cy="256" r="256"/>
<g>
	<path style="fill:#FFFFFF;" d="M197.432,303.008c-4.624,2.312-13.872,4.624-25.736,4.624c-27.456,0-48.128-17.344-48.128-49.288
		c0-30.496,20.672-51.16,50.872-51.16c12.144,0,19.8,2.592,23.128,4.328l-3.032,10.264c-4.776-2.312-11.56-4.048-19.656-4.048
		c-22.84,0-38.016,14.592-38.016,40.176c0,23.848,13.736,39.168,37.44,39.168c7.656,0,15.464-1.584,20.512-4.048L197.432,303.008z"
		/>
	<path style="fill:#FFFFFF;" d="M213.2,210.08c7.664-1.16,16.768-2.032,26.744-2.032c18.064,0,30.92,4.192,39.456,12.144
		c8.672,7.952,13.736,19.224,13.736,34.984c0,15.888-4.92,28.904-14.024,37.856c-9.104,9.112-24.136,14.024-43.072,14.024
		c-8.96,0-16.48-0.432-22.832-1.16V210.08H213.2z M225.776,296.216c3.184,0.576,7.816,0.72,12.72,0.72
		c26.888,0,41.488-15.032,41.488-41.336c0.144-22.976-12.856-37.576-39.456-37.576c-6.504,0-11.424,0.576-14.752,1.304
		L225.776,296.216L225.776,296.216z"/>
	<path style="fill:#FFFFFF;" d="M309.488,306.184v-97.416h13.728l31.216,49.288c7.232,11.416,12.864,21.672,17.496,31.648
		l0.288-0.152c-1.16-13-1.448-24.856-1.448-40.032v-40.76h11.848v97.416h-12.72l-30.928-49.432
		c-6.792-10.832-13.296-21.968-18.208-32.52l-0.44,0.152c0.728,12.288,1.016,23.992,1.016,40.176v41.624h-11.848V306.184z"/>
</g>
<g>
</g>
<g>
</g>
<g>
</g>
<g>
</g>
<g>
</g>
<g>
</g>
<g>
</g>
<g>
</g>
<g>
</g>
<g>
</g>
<g>
</g>
<g>
</g>
<g>
</g>
<g>
</g>
<g>
</g>
</svg>
