<svg xmlns="http://www.w3.org/2000/svg" xmlns:xlink="http://www.w3.org/1999/xlink" width="14" height="18" viewBox="0 0 14 18"><defs><path id="ck6la" d="M1496.88 774.9h10.24l-.54 11.33a.8.8 0 0 1-.8.77h-7.56a.8.8 0 0 1-.8-.77zm6.83 9.28c0 .18.15.33.33.33h.52c.18 0 .33-.15.33-.33v-6.47a.33.33 0 0 0-.33-.33h-.52a.33.33 0 0 0-.33.33zm-2.3-6.47v6.47c0 .18.15.33.33.33h.52c.18 0 .33-.15.33-.33v-6.47a.33.33 0 0 0-.33-.33h-.52a.33.33 0 0 0-.33.33zm-2.3 6.47c0 .18.15.33.33.33h.52c.18 0 .33-.15.33-.33v-6.47a.33.33 0 0 0-.33-.33h-.52a.33.33 0 0 0-.33.33zm8.88-11.85v1.59h-11.98v-1.59c0-.28.23-.5.5-.5h3.5v-.66c0-.1.07-.17.16-.17h3.66c.1 0 .17.08.17.17v.66h3.48c.28 0 .51.22.51.5z"/></defs><g><g transform="translate(-1495 -770)"><use fill="#ff5656" xlink:href="#ck6la"/></g></g></svg>