<?xml version="1.0" standalone="no"?>
<!DOCTYPE svg PUBLIC "-//W3C//DTD SVG 1.1//EN" "http://www.w3.org/Graphics/SVG/1.1/DTD/svg11.dtd" >
<svg xmlns="http://www.w3.org/2000/svg">
<metadata>Generated by IcoMoon</metadata>
<defs>
<font id="icomoon" horiz-adv-x="1024">
<font-face units-per-em="1024" ascent="960" descent="-64" />
<missing-glyph horiz-adv-x="1024" />
<glyph unicode="&#x20;" horiz-adv-x="512" d="" />
<glyph unicode="&#xe900;" glyph-name="add" d="M585.143 521.143v438.857h-146.286v-438.857h-438.857v-146.286h438.857v-438.857h146.286v438.857h438.857v146.286z" />
<glyph unicode="&#xe901;" glyph-name="arrow-down" horiz-adv-x="1792" d="M896-51.2c-38.4 0-64 12.8-89.6 38.4l-768 768 179.2 179.2 678.4-678.4 678.4 678.4 179.2-179.2-768-768c-25.6-25.6-51.2-38.4-89.6-38.4v0z" />
<glyph unicode="&#xe902;" glyph-name="arrow-left" horiz-adv-x="585" d="M7.314 448c0 21.943 7.314 36.571 21.943 51.2l438.857 438.857 102.4-102.4-387.657-387.657 387.657-387.657-102.4-102.4-438.857 438.857c-14.629 14.629-21.943 29.257-21.943 51.2v0z" />
<glyph unicode="&#xe903;" glyph-name="arrow-right" horiz-adv-x="585" d="M577.829 448c0-21.943-7.314-36.571-21.943-51.2l-438.857-438.857-102.4 102.4 387.657 387.657-387.657 387.657 102.4 102.4 438.857-438.857c14.629-14.629 21.943-29.257 21.943-51.2v0z" />
<glyph unicode="&#xe904;" glyph-name="arrow-up" horiz-adv-x="1792" d="M896 947.2c-38.4 0-64-12.8-89.6-38.4l-768-768 179.2-179.2 678.4 678.4 678.4-678.4 179.2 179.2-768 768c-25.6 25.6-51.2 38.4-89.6 38.4v0z" />
<glyph unicode="&#xe905;" glyph-name="bell" d="M316.018 49.778c39.424-67.698 112.014-113.778 195.982-113.778s156.558 46.080 195.982 113.778h-391.964zM1024 106.667h-1024v154.795l38.912 12.914c78.791 26.34 131.755 99.783 131.755 182.841v161.451c0 188.245 153.088 341.333 341.333 341.333s341.333-153.088 341.333-341.333v-161.451c0-83.058 52.964-156.501 131.755-182.841l38.912-12.914v-154.795zM172.658 220.444h678.741c-69.461 57.003-111.844 143.019-111.844 236.772v161.451c0 125.497-102.059 227.556-227.556 227.556s-227.556-102.059-227.556-227.556v-161.451c0-93.753-42.382-179.769-111.787-236.772v0z" />
<glyph unicode="&#xe906;" glyph-name="bell-filled" d="M316.018 49.778c39.424-67.698 112.014-113.778 195.982-113.778s156.558 46.080 195.982 113.778h-391.964zM1024 106.667h-1024v154.795l38.912 12.914c78.791 26.34 131.755 99.783 131.755 182.841v161.451c0 188.245 153.088 341.333 341.333 341.333s341.333-153.088 341.333-341.333v-161.451c0-83.058 52.964-156.501 131.755-182.841l38.912-12.914v-154.795z" />
<glyph unicode="&#xe907;" glyph-name="calendar-2" horiz-adv-x="1084" d="M948.706 824.471h-135.529v90.353h-90.353v-271.059h90.353v90.353h135.529v-677.647h-813.176v677.647h90.353v90.353h-90.353c-49.875 0-90.353-40.433-90.353-90.353v-677.647c0-49.875 40.478-90.353 90.353-90.353h813.176c49.875 0 90.353 40.478 90.353 90.353v677.647c0 49.92-40.478 90.353-90.353 90.353v0zM361.412 734.118h316.235v90.353h-316.235v90.353h-90.353v-271.059h90.353zM225.882 553.412h180.706v-180.706h-180.706v180.706zM451.765 553.412h180.706v-180.706h-180.706v180.706zM677.647 553.412h180.706v-180.706h-180.706v180.706zM225.882 327.529h180.706v-180.706h-180.706v180.706zM451.765 327.529h180.706v-180.706h-180.706v180.706z" />
<glyph unicode="&#xe908;" glyph-name="calendar-1" horiz-adv-x="1097" d="M975.238 862.476h-97.524v97.524h-97.524v-243.81h-97.524v146.286h-292.571v97.524h-97.524v-243.81h-97.524v146.286h-97.524c-53.784 0-97.524-43.788-97.524-97.524v-731.429c0-53.736 43.739-97.524 97.524-97.524h877.714c53.784 0 97.524 43.788 97.524 97.524v731.429c0 53.784-43.739 97.524-97.524 97.524v0zM341.333 82.286h-195.048v195.048h195.048v-195.048zM341.333 374.857h-195.048v195.048h195.048v-195.048zM633.905 82.286h-195.048v195.048h195.048v-195.048zM633.905 374.857h-195.048v195.048h195.048v-195.048zM926.476 374.857h-195.048v195.048h195.048v-195.048z" />
<glyph unicode="&#xe909;" glyph-name="chat-bubble" horiz-adv-x="1216" d="M639.893-32h-533.333c-21.227 0-40.427 12.587-48.853 32-8.48 19.467-4.64 42.080 9.813 57.6l122.987 132.48c-55.093 77.013-83.947 165.387-83.947 257.92 0 264.693 239.253 480 533.333 480s533.333-215.307 533.333-480c0-264.693-239.253-480-533.333-480v0zM228.853 74.667h411.040c235.253 0 426.667 167.467 426.667 373.333 0 205.813-191.413 373.333-426.667 373.333s-426.667-167.52-426.667-373.333c0-81.973 30.293-160 87.573-225.707 17.92-20.587 17.44-51.36-1.12-71.36l-70.827-76.267z" />
<glyph unicode="&#xe90a;" glyph-name="check-box" horiz-adv-x="1195" d="M378.738-25.031l-350.293 350.364 125.653 125.724 218.596-218.596 648.391 713.316 131.484-119.609z" />
<glyph unicode="&#xe90b;" glyph-name="close" d="M906.096 935.585l-360.682-360.682c-14.791-14.753-38.685-14.753-53.439 0l-374.032 374.032c-14.753 14.753-38.685 14.753-53.439 0l-53.439-53.439c-14.753-14.753-14.753-38.647 0-53.439l374.032-374.032c14.753-14.753 14.753-38.647 0-53.439l-360.682-360.644c-14.753-14.753-14.753-38.685 0-53.439l53.439-53.439c14.753-14.753 38.685-14.753 53.439 0l360.682 360.682c14.753 14.753 38.647 14.753 53.439 0l347.294-347.332c14.753-14.753 38.685-14.753 53.439 0l53.439 53.439c14.753 14.753 14.753 38.685 0 53.439l-347.332 347.294c-14.753 14.791-14.753 38.685 0 53.439l360.682 360.682c14.753 14.753 14.753 38.685 0 53.439l-53.439 53.439c-14.753 14.753-38.647 14.753-53.401 0z" />
<glyph unicode="&#xe90c;" glyph-name="comment" d="M230.306-21.333v187.733h-93.867c-51.767 0-93.867 42.099-93.867 93.867v563.2c0 51.814 42.099 93.867 93.867 93.867h750.933c51.767 0 93.867-42.052 93.867-93.867v-563.2c0-51.767-42.099-93.867-93.867-93.867h-406.771l-250.295-187.733zM136.439 823.467v-563.2h187.733v-93.867l125.171 93.867h438.029v563.2h-750.933z" />
<glyph unicode="&#xe90d;" glyph-name="comment-filled" d="M230.306-21.333v187.733h-93.867c-51.767 0-93.867 42.099-93.867 93.867v563.2c0 51.814 42.099 93.867 93.867 93.867h750.933c51.767 0 93.867-42.052 93.867-93.867v-563.2c0-51.767-42.099-93.867-93.867-93.867h-406.771l-250.295-187.733z" />
<glyph unicode="&#xe90e;" glyph-name="facebook" horiz-adv-x="512" d="M484.022 778.894c-27.978 8.17-60.153 13.617-89.53 13.617-36.372 0-114.71-23.149-114.71-68.085v-107.574h186.055v-181.106h-186.055v-499.745h-187.454v499.745h-92.328v181.106h92.328v91.234c0 137.532 64.35 251.915 219.628 251.915 53.158 0 148.284-2.723 200.044-20.426l-27.978-160.681z" />
<glyph unicode="&#xe90f;" glyph-name="file-images-add" d="M737.28 772.157l-187.843 187.843h-467.517c-45.179 0-81.92-36.782-81.92-81.92v-737.28c0-45.179 36.741-81.92 81.92-81.92h505.774c-9.052 25.641-14.254 53.125-14.254 81.879 0 14.008 1.434 27.607 3.686 41.001h-454.246l122.88 163.84 81.92-81.92 163.84 204.8 100.434-234.291c26.46 64.307 79.462 114.729 145.326 138.076v399.892zM225.28 427.52c-56.607 0-102.4 45.793-102.4 102.4 0 56.566 45.793 102.4 102.4 102.4 56.484 0 102.4-45.834 102.4-102.4 0-56.607-45.916-102.4-102.4-102.4v0zM491.52 714.24v204.8l204.8-204.8h-204.8zM860.16 181.719v122.88h-81.92v-122.88h-122.88v-81.92h122.88v-122.88h81.92v122.88h122.88v81.92z" />
<glyph unicode="&#xe910;" glyph-name="google" horiz-adv-x="1216" d="M494.775 960c49.633 0 99.265-1.457 147.347-1.457 12.408 0 27.918 0 27.918-16.023 0-46.612-79.102-46.612-113.225-50.982 51.184-33.502 68.245-99.050 68.245-155.858 0-179.164-150.449-202.469-150.449-254.908 0-48.068 195.429-119.442 195.429-284.040 0-183.533-181.469-260.734-352.082-260.734-147.347 0-317.959 59.721-317.959 221.405 0 171.881 201.633 219.949 350.531 219.949-18.612 48.068-35.673-2.913-35.673 96.137-148.898 0-254.367 81.57-254.367 225.775 0 117.986 80.653 203.926 196.98 238.885 66.694 20.393 167.51 21.849 237.306 21.849zM361.388 571.084c74.449 0 99.265 64.091 99.265 123.812 0 75.744-48.082 199.556-145.796 199.556-72.898 0-99.265-65.548-99.265-123.812 0-75.744 48.082-199.556 145.796-199.556zM339.673 49.616c85.306 0 206.286 49.525 206.286 142.748 0 91.767-110.122 131.095-192.327 131.095-89.959 0-206.286-39.329-206.286-139.835 0-93.223 108.571-134.009 192.327-134.009zM1060.898 696.353v-145.661h-103.918v145.661h-155.102v96.137h155.102v145.661h103.918v-145.661h155.102v-96.137h-155.102z" />
<glyph unicode="&#xe911;" glyph-name="icon" horiz-adv-x="970" d="M18.607 543.85l227.119-84.025c16.777-6.229 35.494-4.21 50.56 5.376l504.369 321.138-416.004-395.89c-11.213-10.667-17.605-25.458-17.662-40.903l-1.427-342.983c-0.114-30.805 42.085-39.822 54.611-11.662l111.077 249.742c6.819 15.303 25.337 21.476 40.003 13.312l294.57-163.698c18.489-10.297 41.401 2.418 42.371 23.495l38.205 812.459c0.97 20.736-19.973 35.499-39.261 27.648l-889.358-361.017c-24.11-9.785-23.568-43.975 0.827-52.992z" />
<glyph unicode="&#xe912;" glyph-name="instagram" d="M297.431 858.222h429.138c108.199 0 195.927-88.248 195.927-197.077v-426.289c0-108.851-87.707-197.077-195.927-197.077h-429.138c-108.199 0-195.927 88.248-195.927 197.077v426.289c0 108.851 87.707 197.077 195.927 197.077zM8.21 234.855c0-160.656 129.495-290.919 289.221-290.919h429.138c159.746 0 289.221 130.243 289.221 290.919v426.289c0 160.656-129.495 290.919-289.221 290.919h-429.138c-159.746 0-289.221-130.243-289.221-290.919v-426.289zM778.556 443.978c0 147.338-118.744 266.778-265.223 266.778s-265.223-119.441-265.223-266.778c0-147.338 118.744-266.778 265.223-266.778s265.223 119.441 265.223 266.778zM341.404 443.978c0 95.51 76.975 172.937 171.928 172.937s171.928-77.426 171.928-172.937c0-95.51-76.975-172.937-171.928-172.937s-171.928 77.426-171.928 172.937zM781.221 653.111c35.332 0 63.973 28.81 63.973 64.349s-28.642 64.349-63.973 64.349c-35.331 0-63.973-28.81-63.973-64.349s28.642-64.349 63.973-64.349z" />
<glyph unicode="&#xe913;" glyph-name="like" horiz-adv-x="1216" d="M1150.293 631.52c-10.133 12.107-25.12 19.147-40.96 19.147h-320v213.333c0 29.44-23.84 53.333-53.333 53.333h-160c-21.333 0-40.64-12.693-49.013-32.267l-146.133-341.067h-18.187c0 29.44-23.84 53.333-53.333 53.333h-213.333c-29.493 0-53.333-23.893-53.333-53.333v-533.333c0-29.44 23.84-53.333 53.333-53.333h213.333c29.493 0 53.333 23.893 53.333 53.333v27.84l193.547-77.387c6.24-2.507 13.013-3.787 19.787-3.787h426.667c25.76 0 47.84 18.453 52.48 43.787l106.667 586.667c2.827 15.573-1.44 31.573-11.52 43.733v0zM256 64h-106.667v426.667h106.667v-426.667zM958.187 64h-371.947l-223.573 89.44v283.893h53.333c21.333 0 40.64 12.693 49.013 32.32l146.133 341.013h71.52v-213.333c0-29.44 23.84-53.333 53.333-53.333h309.44l-87.253-480z" />
<glyph unicode="&#xe914;" glyph-name="more" horiz-adv-x="256" d="M0 832c0-70.692 57.308-128 128-128s128 57.308 128 128c0 70.692-57.308 128-128 128s-128-57.308-128-128zM0 448c0-70.692 57.308-128 128-128s128 57.308 128 128c0 70.692-57.308 128-128 128s-128-57.308-128-128zM0 64c0-70.692 57.308-128 128-128s128 57.308 128 128c0 70.692-57.308 128-128 128s-128-57.308-128-128z" />
<glyph unicode="&#xe915;" glyph-name="r-s-s" d="M256.725 63.637c0 71.071-58.017 129.088-129.088 129.088-69.62 0-127.637-59.467-127.637-129.088s58.017-127.637 127.637-127.637c69.62 0 129.088 58.017 129.088 127.637v0zM675.898-64c0 372.759-303.139 675.898-675.898 675.898v-195.807c263.977 0 478.64-216.113 478.64-480.091h197.258zM1024-64c0 564.215-459.785 1022.55-1024 1024v-195.807c456.884-1.45 825.292-371.309 826.742-828.193h197.258z" />
<glyph unicode="&#xe916;" glyph-name="search" d="M1018.507 11.349l-266.433 266.433c53.8 68.967 83.294 153.2 83.294 242.077 0 105.575-41.153 204.827-115.802 279.426-74.599 74.698-173.851 115.802-279.426 115.802s-204.827-41.104-279.426-115.802c-74.649-74.599-115.802-173.851-115.802-279.426s41.153-204.827 115.802-279.426c74.599-74.698 173.851-115.802 279.426-115.802 88.877 0 173.11 29.444 242.077 83.294l266.433-266.384 69.857 69.807zM440.14 223.439c-79.194 0-153.596 30.828-209.57 86.802-56.024 55.974-86.851 130.425-86.851 209.619 0 79.144 30.828 153.596 86.851 209.57 55.974 56.024 130.376 86.851 209.57 86.851s153.596-30.828 209.57-86.851c56.024-55.974 86.851-130.425 86.851-209.57 0-79.194-30.828-153.645-86.851-209.619-55.974-55.974-130.376-86.802-209.57-86.802v0z" />
<glyph unicode="&#xe917;" glyph-name="story" horiz-adv-x="1229" d="M1126.4 937.244h-398.222c-15.132 0-29.582-5.973-40.22-16.668l-73.557-73.557-73.557 73.557c-10.638 10.638-25.088 16.668-40.22 16.668h-398.222c-31.46 0-56.889-25.543-56.889-56.889v-739.556c0-31.403 25.429-56.889 56.889-56.889h374.67l97.109-97.109c11.093-11.15 25.657-16.668 40.22-16.668s29.127 5.575 40.22 16.668l97.109 97.109h374.67c31.46 0 56.889 25.486 56.889 56.889v739.556c0 31.346-25.429 56.889-56.889 56.889v0zM500.622 197.689h-341.333v625.778h317.781l80.441-80.498v-578.674l-16.668 16.668c-10.638 10.695-25.088 16.725-40.22 16.725v0zM1069.511 197.689h-341.333c-15.132 0-29.582-5.973-40.22-16.668l-16.668-16.668v578.617l80.441 80.498h317.781v-625.778z" />
<glyph unicode="&#xe918;" glyph-name="twitter" horiz-adv-x="1497" d="M1190.222 799.904c0 0 0 11.435 0 0-58.922 57.177-129.628 80.048-200.334 68.612v0 0c70.706 11.435 106.059 34.306 117.844 45.742 0 11.435 0 22.871-11.784 22.871-35.353 0-70.706-11.435-94.275-22.871 35.353 22.871 47.137 34.306 47.137 45.742-35.353 0-70.706-22.871-117.844-57.177 11.784 22.871 23.569 34.306 11.784 45.742-23.569-11.435-35.353-22.871-47.137-45.742-35.353-34.306-58.922-57.177-70.706-91.483v0c-47.137-80.048-82.491-148.66-106.059-228.708h-11.784c-23.569 34.306-58.922 68.612-106.059 91.483-47.137 34.306-106.059 57.177-176.766 91.483s-141.412 68.612-223.903 91.483c0-80.048 35.353-148.66 117.844-194.402v0c-23.569 0-58.922 0-82.491-11.435 0-68.612 58.922-125.79 164.981-148.66v0c-35.353 0-70.706-11.435-106.059-34.306 35.353-68.612 94.275-91.483 188.55-91.483-11.784-11.435-35.353-22.871-35.353-22.871-11.784-11.435-23.569-34.306-11.784-57.177 23.569-34.306 47.137-45.742 106.059-45.742v0 0c-82.491-80.048-188.55-125.79-306.394-114.354v0c-70.706 0-153.197 34.306-235.687 102.919 82.491-114.354 200.334-205.837 341.747-263.014 164.981-45.742 329.962-57.177 483.159-11.435v0c153.197 45.742 294.609 137.225 400.669 263.014 47.137 68.612 82.491 137.225 94.275 205.837 82.491 0 141.412 22.871 176.766 68.612v0c-23.569-11.435-82.491-11.435-164.981 11.435v0 0c82.491 11.435 141.412 34.306 153.197 80.048-58.922-22.871-117.844-22.871-176.766 0-11.784 80.048-47.137 148.66-117.844 205.837v0z" />
<glyph unicode="&#xe919;" horiz-adv-x="4309" d="M1838.522 833.979h-128.973l-253.977-682.887h120.044l61.51 167.258h275.803l59.526-167.258h121.036l-254.969 682.887zM1877.213 417.32h-205.364l101.194 291.959h1.984l102.186-291.959zM2355.735 226.309c-72.423 0-124.012 23.753-126.988 76.206h-109.131c2.976-120.742 97.226-164.289 232.151-164.289 142.862 0 221.238 48.495 221.238 151.423v1.979c0 103.918-62.502 139.546-181.554 155.381l-49.605 5.938c-67.463 7.918-100.202 23.753-100.202 62.351v1.979c0 30.68 27.779 57.402 104.17 57.402 70.439 0 105.162-17.814 108.139-64.33h109.131c-7.937 106.887-85.32 151.423-217.269 151.423-139.886 0-213.301-52.454-213.301-146.474v-1.979c0-102.928 68.455-138.557 182.546-151.423l52.581-5.938c64.486-7.918 96.233-24.742 96.233-63.34v-1.979c0-42.557-35.716-64.33-108.139-64.33v0zM2777.707 223.34c24.802-43.546 80.36-84.124 175.601-84.124 133.933 0 215.285 92.041 215.285 261.278v1.979c0 161.32-76.391 259.299-216.277 259.299-92.265 0-153.775-46.515-174.609-86.103h-1.984l-1.984 74.227h-109.131v-667.052h111.115v240.495h1.984zM2775.723 434.144c0 80.165 60.518 135.588 148.815 135.588 95.241 0 130.957-59.381 130.957-167.258v-1.979c0-110.845-36.708-170.227-131.949-170.227-92.265 0-141.87 53.443-146.83 124.701 0 14.845-0.992 28.701-0.992 43.546v35.629zM3264.165 151.093h112.107v498.804h-112.107v-498.804zM3263.173 724.124h114.091v109.856h-114.091v-109.856zM3493.67 151.093h112.107v244.454c0 109.856 51.589 155.381 174.609 155.381v108.866c-103.178 7.918-156.751-51.464-172.625-101.938h-1.984l-1.984 92.041h-110.123v-498.804zM4111.086 228.289c-122.028 0-170.641 41.567-173.617 131.629h363.108c2.976 18.804 5.953 42.557 5.953 65.32 0 139.546-59.526 236.536-227.19 236.536-165.68 0-251.001-95.010-251.001-260.289v-1.979c0-171.216 80.36-261.278 274.811-261.278 64.486 0 125.004 11.876 176.593 31.67v89.072c-60.518-19.794-113.099-30.68-168.657-30.68v0zM4077.354 574.68c93.257 0 123.020-47.505 123.020-135.588h-262.906c6.945 91.052 47.621 135.588 139.886 135.588v0z" />
<glyph unicode="&#xe91a;" horiz-adv-x="4309" d="M588.578 407.641c-8.005 7.038-20.013 7.038-28.019 0l-525.218-462.212c-17.879-15.737-44.163 5.445-32.422 26.095l347.499 611.679c11.074 9.761 27.618 9.761 38.693 0l199.467-175.562zM1113.795-54.571l-724.684 637.775c-11.074 9.761-27.618 9.761-38.693 0l8.339 14.674 4.536 8.034 190.794 335.72c0.067 0.133 0.133 0.266 0.267 0.465l1.801 3.254c4.069 7.105 11.207 10.69 18.412 10.69s14.343-3.586 18.412-10.69l1.801-3.254c0.133-0.199 0.2-0.332 0.267-0.465l551.168-970.108c11.741-20.65-14.543-41.832-32.422-26.095z" />
<glyph unicode="&#xe91b;" horiz-adv-x="4309" d="M591.98 408.194c-8.052 7.047-20.129 7.047-28.181 0l-528.253-462.759c-17.982-15.755-44.418 5.451-32.609 26.126l349.507 612.403c11.138 9.772 27.778 9.772 38.916 0l200.619-175.77z" />
<glyph unicode="&#xe91c;" horiz-adv-x="4309" d="M1113.698-54.572l-726.676 637.775c-11.105 9.761-27.694 9.761-38.799 0l8.362 14.674 4.549 8.034 191.319 335.72c0.067 0.133 0.134 0.266 0.268 0.465l1.806 3.254c4.081 7.105 11.238 10.69 18.463 10.69s14.382-3.586 18.463-10.69l1.806-3.254c0.134-0.199 0.201-0.332 0.268-0.465l552.683-970.109c11.773-20.651-14.583-41.832-32.511-26.095z" />
</font>
</defs>
</svg>
